<mxfile host="app.diagrams.net" modified="2023-08-04T06:34:29.865Z" agent="Mozilla/5.0 (Macintosh; Intel Mac OS X 10_15_7) AppleWebKit/537.36 (KHTML, like Gecko) Chrome/114.0.0.0 Safari/537.36" etag="6af8wDU2ywS2a5RMAdcP" version="21.6.6" type="github">
  <diagram id="C5RBs43oDa-KdzZeNtuy" name="Page-1">
    <mxGraphModel dx="1221" dy="633" grid="0" gridSize="10" guides="1" tooltips="1" connect="1" arrows="1" fold="1" page="1" pageScale="1" pageWidth="827" pageHeight="1169" math="0" shadow="0">
      <root>
        <mxCell id="WIyWlLk6GJQsqaUBKTNV-0" />
        <mxCell id="WIyWlLk6GJQsqaUBKTNV-1" parent="WIyWlLk6GJQsqaUBKTNV-0" />
        <mxCell id="Viqg7B46TrPz1AS4XvMr-3" style="edgeStyle=orthogonalEdgeStyle;rounded=0;orthogonalLoop=1;jettySize=auto;html=1;entryX=0;entryY=0.5;entryDx=0;entryDy=0;" edge="1" parent="WIyWlLk6GJQsqaUBKTNV-1" source="Viqg7B46TrPz1AS4XvMr-0" target="Viqg7B46TrPz1AS4XvMr-2">
          <mxGeometry relative="1" as="geometry" />
        </mxCell>
        <mxCell id="Viqg7B46TrPz1AS4XvMr-21" style="edgeStyle=orthogonalEdgeStyle;rounded=0;orthogonalLoop=1;jettySize=auto;html=1;entryX=0.5;entryY=0;entryDx=0;entryDy=0;" edge="1" parent="WIyWlLk6GJQsqaUBKTNV-1" source="Viqg7B46TrPz1AS4XvMr-0" target="Viqg7B46TrPz1AS4XvMr-1">
          <mxGeometry relative="1" as="geometry" />
        </mxCell>
        <mxCell id="Viqg7B46TrPz1AS4XvMr-0" value="Request Signature" style="html=1;whiteSpace=wrap;fillColor=#dae8fc;strokeColor=#6c8ebf;" vertex="1" parent="WIyWlLk6GJQsqaUBKTNV-1">
          <mxGeometry x="344" y="321" width="110" height="50" as="geometry" />
        </mxCell>
        <mxCell id="Viqg7B46TrPz1AS4XvMr-16" style="rounded=0;orthogonalLoop=1;jettySize=auto;html=1;exitX=0.5;exitY=1;exitDx=0;exitDy=0;entryX=0.5;entryY=0;entryDx=0;entryDy=0;" edge="1" parent="WIyWlLk6GJQsqaUBKTNV-1" source="Viqg7B46TrPz1AS4XvMr-1" target="Viqg7B46TrPz1AS4XvMr-9">
          <mxGeometry relative="1" as="geometry">
            <mxPoint x="110" y="640" as="targetPoint" />
          </mxGeometry>
        </mxCell>
        <mxCell id="Viqg7B46TrPz1AS4XvMr-18" style="rounded=0;orthogonalLoop=1;jettySize=auto;html=1;" edge="1" parent="WIyWlLk6GJQsqaUBKTNV-1" source="Viqg7B46TrPz1AS4XvMr-1" target="Viqg7B46TrPz1AS4XvMr-11">
          <mxGeometry relative="1" as="geometry" />
        </mxCell>
        <mxCell id="Viqg7B46TrPz1AS4XvMr-19" style="rounded=0;orthogonalLoop=1;jettySize=auto;html=1;exitX=0.5;exitY=1;exitDx=0;exitDy=0;" edge="1" parent="WIyWlLk6GJQsqaUBKTNV-1" source="Viqg7B46TrPz1AS4XvMr-1" target="Viqg7B46TrPz1AS4XvMr-12">
          <mxGeometry relative="1" as="geometry" />
        </mxCell>
        <mxCell id="Viqg7B46TrPz1AS4XvMr-20" style="rounded=0;orthogonalLoop=1;jettySize=auto;html=1;entryX=0.5;entryY=0;entryDx=0;entryDy=0;exitX=0.5;exitY=1;exitDx=0;exitDy=0;" edge="1" parent="WIyWlLk6GJQsqaUBKTNV-1" source="Viqg7B46TrPz1AS4XvMr-1" target="Viqg7B46TrPz1AS4XvMr-13">
          <mxGeometry relative="1" as="geometry">
            <mxPoint x="795" y="600" as="targetPoint" />
          </mxGeometry>
        </mxCell>
        <mxCell id="Viqg7B46TrPz1AS4XvMr-22" style="rounded=0;orthogonalLoop=1;jettySize=auto;html=1;entryX=0.5;entryY=0;entryDx=0;entryDy=0;exitX=0.5;exitY=1;exitDx=0;exitDy=0;" edge="1" parent="WIyWlLk6GJQsqaUBKTNV-1" source="Viqg7B46TrPz1AS4XvMr-1" target="Viqg7B46TrPz1AS4XvMr-10">
          <mxGeometry relative="1" as="geometry" />
        </mxCell>
        <mxCell id="Viqg7B46TrPz1AS4XvMr-1" value="Raw Request Signature" style="html=1;whiteSpace=wrap;fillColor=#fff2cc;strokeColor=#d6b656;" vertex="1" parent="WIyWlLk6GJQsqaUBKTNV-1">
          <mxGeometry x="344" y="490" width="110" height="58" as="geometry" />
        </mxCell>
        <mxCell id="Viqg7B46TrPz1AS4XvMr-2" value="Digest Algorithm" style="html=1;whiteSpace=wrap;fillColor=#d5e8d4;strokeColor=#82b366;" vertex="1" parent="WIyWlLk6GJQsqaUBKTNV-1">
          <mxGeometry x="630" y="321" width="110" height="50" as="geometry" />
        </mxCell>
        <mxCell id="Viqg7B46TrPz1AS4XvMr-4" value="MD5" style="html=1;whiteSpace=wrap;fillColor=#e1d5e7;strokeColor=#9673a6;" vertex="1" parent="WIyWlLk6GJQsqaUBKTNV-1">
          <mxGeometry x="630" y="437" width="110" height="50" as="geometry" />
        </mxCell>
        <mxCell id="Viqg7B46TrPz1AS4XvMr-7" value="" style="endArrow=block;dashed=1;endFill=0;endSize=12;html=1;rounded=0;entryX=0.5;entryY=1;entryDx=0;entryDy=0;exitX=0.5;exitY=0;exitDx=0;exitDy=0;" edge="1" parent="WIyWlLk6GJQsqaUBKTNV-1" source="Viqg7B46TrPz1AS4XvMr-4" target="Viqg7B46TrPz1AS4XvMr-2">
          <mxGeometry width="160" relative="1" as="geometry">
            <mxPoint x="370" y="421" as="sourcePoint" />
            <mxPoint x="530" y="421" as="targetPoint" />
          </mxGeometry>
        </mxCell>
        <mxCell id="Viqg7B46TrPz1AS4XvMr-9" value="Method Signature" style="html=1;whiteSpace=wrap;fillColor=#ffe6cc;strokeColor=#d79b00;" vertex="1" parent="WIyWlLk6GJQsqaUBKTNV-1">
          <mxGeometry x="49" y="642" width="110" height="50" as="geometry" />
        </mxCell>
        <mxCell id="Viqg7B46TrPz1AS4XvMr-10" value="Path Signature" style="html=1;whiteSpace=wrap;fillColor=#ffe6cc;strokeColor=#d79b00;" vertex="1" parent="WIyWlLk6GJQsqaUBKTNV-1">
          <mxGeometry x="200" y="642" width="110" height="50" as="geometry" />
        </mxCell>
        <mxCell id="Viqg7B46TrPz1AS4XvMr-11" value="General Signature" style="html=1;whiteSpace=wrap;fillColor=#ffe6cc;strokeColor=#d79b00;" vertex="1" parent="WIyWlLk6GJQsqaUBKTNV-1">
          <mxGeometry x="344" y="642" width="110" height="50" as="geometry" />
        </mxCell>
        <mxCell id="Viqg7B46TrPz1AS4XvMr-12" value="Queries Signature" style="html=1;whiteSpace=wrap;fillColor=#ffe6cc;strokeColor=#d79b00;" vertex="1" parent="WIyWlLk6GJQsqaUBKTNV-1">
          <mxGeometry x="498" y="642" width="110" height="50" as="geometry" />
        </mxCell>
        <mxCell id="Viqg7B46TrPz1AS4XvMr-13" value="Body Signature" style="html=1;whiteSpace=wrap;fillColor=#ffe6cc;strokeColor=#d79b00;" vertex="1" parent="WIyWlLk6GJQsqaUBKTNV-1">
          <mxGeometry x="644" y="642" width="110" height="50" as="geometry" />
        </mxCell>
      </root>
    </mxGraphModel>
  </diagram>
</mxfile>
